<svg xmlns="http://www.w3.org/2000/svg" viewBox="1.7 2.1 170.1 69.5"><path fill="#439D94" d="M36.4 71.6c-19.5 0-34.7-15.4-34.7-36.7V2.1H34c23.6 0 37.3 15.6 37.3 34.8S55.9 71.7 36.4 71.6"/><path fill="#C6E1DE" d="M16.1 44.1v-5.3H19c.7 0 1.2.1 1.7.2.4.1.8.3 1.1.5.3.2.5.5.6.9.1.3.1.5.2.8v.1c0 .3-.1.6-.1.9-.1.4-.3.7-.5 1-.3.3-.6.5-1.1.7s-1 .3-1.7.3l-3.1-.1m0-9.2v-5.3h2.3c.6 0 1.1 0 1.6.1s.8.3 1.1.5c.3.2.5.5.6.9.1.3.2.6.2 1v.2c0 .4-.1.8-.3 1.1-.2.4-.4.7-.8.9-.3.2-.7.4-1.2.4-.5.1-1 .1-1.6.1l-1.9.1M14 25.4c-1.2 0-2.1 1-2.1 2.1v18.8c0 1.2 1 2.1 2.1 2.1h5.2c1.4 0 2.6-.2 3.7-.5 1.1-.4 2-.8 2.7-1.5.7-.6 1.3-1.4 1.7-2.2.4-.8.6-1.8.6-2.7 0-1.3-.4-2.4-1.1-3.2s-1.8-1.4-3.4-1.8c.7-.3 1.3-.5 1.8-.9.5-.3.9-.7 1.2-1.1.3-.4.5-.9.7-1.4.1-.5.2-1 .2-1.5 0-.9-.2-1.8-.5-2.6s-.8-1.4-1.5-2c-.7-.5-1.6-1-2.7-1.2-1.1-.3-2.5-.4-4.1-.4H14m36.2 18.7v-5.3h2.9c.7 0 1.2.1 1.7.2.4.1.8.3 1.1.5.3.2.5.5.6.9.1.3.1.5.2.8v.1c0 .3-.1.6-.1.9-.1.4-.3.7-.5 1-.3.3-.6.5-1.1.7-.4.2-1 .3-1.7.3l-3.1-.1m0-9.2v-5.3h2.3c.6 0 1.1 0 1.6.1s.8.3 1.1.5c.3.2.5.5.6.9.1.3.2.6.2 1v.2c0 .4-.1.8-.3 1.1-.2.4-.4.7-.8.9-.3.2-.7.4-1.2.4-.5.1-1 .1-1.6.1l-1.9.1m-2.1-9.5c-1.2 0-2.1 1-2.1 2.1v18.8c0 1.2 1 2.1 2.1 2.1h5.2c1.4 0 2.6-.2 3.7-.5 1.1-.4 2-.8 2.7-1.5.7-.6 1.3-1.4 1.7-2.2.4-.8.6-1.8.6-2.7 0-1.3-.4-2.4-1.1-3.2s-1.8-1.4-3.4-1.8c.7-.3 1.3-.5 1.8-.9.5-.3.9-.7 1.2-1.1.3-.4.5-.9.7-1.4.1-.5.2-1 .2-1.5 0-.9-.2-1.8-.5-2.6s-.8-1.4-1.5-2c-.7-.5-1.6-1-2.7-1.2s-2.5-.4-4.1-.4h-4.5m-6.7 18.7H35v2.1c0 1.2-1 2.1-2.1 2.1-1.2 0-2.1-1-2.1-2.1 0 1.2 1 2.1 2.1 2.1h8.5c1.2 0 2.1-1 2.1-2.1.1-1.1-.9-2.1-2.1-2.1m-8.5-18.7c-1.2 0-2.1 1-2.1 2.1v18.8c0-1.2 1-2.1 2.1-2.1H35V27.5c.1-1.2-.9-2.1-2.1-2.1"/><path fill="#FFF" d="M32.9 44.1c-1.2 0-2.1 1-2.1 2.1v.1c0 1.2 1 2.1 2.1 2.1 1.2 0 2.1-1 2.1-2.1v-2.1l-2.1-.1zM14 25.4c-1.2 0-2.1 1-2.1 2.1 0 1.2 1 2.1 2.1 2.1h2.1v-2.1c0-1.2-1-2.1-2.1-2.1zm-2.2 20.9c0 1.2 1 2.1 2.1 2.1s2.1-1 2.1-2.1v-2.1h-2.1c-1.1-.1-2.1.9-2.1 2.1zm36.3-20.9c-1.2 0-2.1 1-2.1 2.1 0 1.2 1 2.1 2.1 2.1h2.1v-2.1c0-1.2-.9-2.1-2.1-2.1zm-2.2 20.9c0 1.2 1 2.1 2.1 2.1s2.1-1 2.1-2.1v-2.1H48c-1.1-.1-2.1.9-2.1 2.1z"/><path d="M144.3 38.6h3.7v-1.7h-3.7v1.7zm-2.1-5.7c-.2-.2-.4-.3-.6-.4-.2-.1-.5-.2-.7-.3-.3-.1-.5-.2-.8-.2-.3 0-.6-.1-.9-.1-.6 0-1 .1-1.5.3-.4.2-.8.4-1.1.7-.3.3-.5.6-.7 1-.1.4-.2.7-.2 1.1 0 .5.1.9.2 1.2.1.3.3.6.5.8.2.2.4.4.7.5.3.1.5.2.8.3.3.1.6.2.8.2.3.1.5.2.7.3.2.1.4.2.5.4.1.1.2.3.2.6 0 .4-.1.7-.4.9-.2.2-.6.3-1 .3-.3 0-.6 0-.8-.1l-.6-.3-.5-.3c-.1-.1-.3-.1-.4-.1-.1 0-.2 0-.3.1-.1.1-.2.1-.2.2l-.7 1.1c.2.2.4.4.7.5.3.2.6.3.9.4l.9.3c.3.1.6.1.9.1.6 0 1.1-.1 1.5-.3.4-.2.8-.4 1.1-.7.3-.3.5-.7.7-1.1.2-.4.2-.8.2-1.3 0-.4-.1-.8-.2-1.1s-.3-.5-.5-.8c-.2-.2-.4-.4-.7-.5-.3-.1-.5-.2-.8-.3-.3-.1-.6-.2-.8-.3-.3-.1-.5-.2-.7-.3-.2-.1-.4-.2-.5-.3-.1-.1-.2-.3-.2-.5 0-.3.1-.6.3-.8.2-.2.5-.3 1-.3.3 0 .5 0 .7.1.2.1.4.1.5.2l.4.2c.1.1.2.1.3.1.1 0 .2 0 .3-.1l.2-.2.8-1.2zm-14.7-1v10h6.4v-1.8h-4.1v-2.4h3.1V36h-3.1v-2.3h4.1v-1.8h-6.4zm-4.3 6.3c-.1.4-.3.7-.6 1-.2.3-.5.5-.9.6-.3.1-.7.2-1.2.2H119v-6.4h1.6c.4 0 .8.1 1.2.2.3.1.6.4.9.6s.4.6.6 1c.1.4.2.8.2 1.3-.1.7-.2 1.1-.3 1.5m2.2-3.3c-.2-.6-.6-1.1-1.1-1.6-.5-.4-1-.8-1.6-1-.6-.3-1.3-.4-2.1-.4h-3.9v10h3.9c.8 0 1.5-.1 2.1-.4s1.2-.6 1.6-1c.5-.4.8-1 1.1-1.6.3-.6.4-1.3.4-2-.1-.7-.2-1.4-.4-2m-18.7-3h-1.2v10h2v-6.4l4.7 6c.1.1.2.2.4.3.1.1.3.1.5.1h1.2v-10h-2v6.4l-4.7-6-.2-.2-.2-.1-.2-.1h-.3m-8.2 3.4c.1-.2.1-.4.2-.6.1-.2.2-.5.2-.8.1.3.2.5.2.8l.2.6.9 2.7h-2.7l1-2.7zm1.6-3.4h-2.4l-3.9 10h1.8c.2 0 .4-.1.5-.2l.3-.3.6-1.7h3.8l.6 1.7c.1.1.1.3.3.4.1.1.3.1.5.1h1.8l-3.9-10zm-11.2 0h-2.3v10h6V40h-3.7v-8.1zm76.2 16.5h-2.3v10h2.3v-4.3h.6c.2 0 .4 0 .5.1.1.1.2.1.3.3l2.3 3.5.1.2.2.1.2.1h2.4l-3-4.6c-.1-.2-.3-.3-.4-.4-.1-.1-.3-.2-.5-.3.1-.1.2-.1.4-.2s.2-.2.3-.4l3-4h-2c-.2 0-.4 0-.6.1-.2.1-.3.2-.4.4l-2.3 3.3c-.1.2-.4.3-.7.3h-.4v-4.2zm-10.9 0v10h6.4v-1.8h-4.1v-2.4h3.1v-1.7h-3.1v-2.3h4.1v-1.8h-6.4zm-2.4 0h-2.3v4.2h-4.1v-4.2H143v10h2.3v-4.2h4.1v4.2h2.3v-10zm-18.3 0v1.8h2.8v8.2h2.3v-8.2h2.8v-1.8h-7.9zm-3.1 6.4c-.1.4-.3.7-.6 1-.2.3-.5.5-.9.6s-.7.2-1.2.2c-.4 0-.8-.1-1.2-.2-.3-.1-.6-.4-.9-.6-.2-.3-.4-.6-.6-1-.1-.4-.2-.8-.2-1.3s.1-.9.2-1.3.3-.7.6-1c.2-.3.5-.5.9-.6.4-.1.7-.2 1.2-.2.4 0 .8.1 1.2.2.3.1.6.4.9.6s.4.6.6 1c.1.4.2.8.2 1.3 0 .4-.1.9-.2 1.3m2.2-3.4c-.3-.6-.6-1.2-1.1-1.6s-1-.8-1.6-1.1c-.6-.3-1.3-.4-2.1-.4s-1.5.1-2.1.4c-.6.3-1.2.6-1.6 1.1-.5.5-.8 1-1.1 1.6s-.4 1.3-.4 2 .1 1.4.4 2 .6 1.2 1.1 1.6c.5.5 1 .8 1.6 1.1.6.3 1.3.4 2.1.4s1.5-.1 2.1-.4c.6-.3 1.2-.6 1.6-1.1.5-.5.8-1 1.1-1.6.2-.6.4-1.3.4-2s-.1-1.4-.4-2m-12-3h-2.3v10h2.3v-10zm-7.8 0h-2.3v10h6v-1.9h-3.7v-8.1zm-9.4 1.8h1.4c.3 0 .5 0 .7.1.2 0 .3.1.5.2s.2.2.3.4c.1.2.1.4.1.6 0 .2 0 .4-.1.6-.1.2-.2.3-.3.4-.1.1-.3.2-.5.2s-.4.1-.7.1h-1.2c-.2-.2-.2-2.6-.2-2.6zm1.7 4c.3 0 .5 0 .7.1.2.1.3.1.5.2.1.1.2.2.2.4s.1.3.1.5 0 .3-.1.5-.1.3-.2.4c-.1.1-.3.2-.5.3-.2.1-.4.1-.8.1h-1.6v-2.5h1.7zm0 4.2c.6 0 1.1-.1 1.6-.2.5-.2.9-.4 1.2-.6.3-.3.6-.6.7-1 .2-.4.2-.8.2-1.2 0-.6-.2-1-.5-1.4-.3-.4-.8-.6-1.5-.8.3-.1.6-.2.8-.4.2-.1.4-.3.5-.5l.3-.6c.1-.2.1-.4.1-.6 0-.4-.1-.8-.2-1.1-.1-.3-.4-.6-.7-.9-.3-.2-.7-.4-1.2-.5s-1.1-.2-1.8-.2h-3.7v10h4.2zm-6.6-10h-2.3v10h2.3v-10zm-9.6 1.8h1.4c.3 0 .5 0 .7.1.2 0 .3.1.5.2.1.1.2.2.3.4.1.2.1.4.1.6 0 .2 0 .4-.1.6-.1.2-.2.3-.3.4-.1.1-.3.2-.5.2s-.4.1-.7.1h-1.2l-.2-2.6zm1.6 4c.3 0 .5 0 .7.1s.3.1.5.2c.1.1.2.2.2.4s.1.3.1.5 0 .3-.1.5-.1.3-.2.4c-.1.1-.3.2-.5.3-.2.1-.4.1-.8.1h-1.6v-2.5h1.7zm.1 4.2c.6 0 1.1-.1 1.6-.2.5-.2.9-.4 1.2-.6.3-.3.6-.6.7-1 .2-.4.2-.8.2-1.2 0-.6-.2-1-.5-1.4-.3-.4-.8-.6-1.5-.8.3-.1.6-.2.8-.4.2-.1.4-.3.5-.5l.3-.6c.1-.2.1-.4.1-.6 0-.4-.1-.8-.2-1.1-.1-.3-.4-.6-.7-.9-.3-.2-.7-.4-1.2-.5-.5-.1-1.1-.2-1.8-.2h-3.7v10h4.2zm60.9-43v10h6.4v-1.8h-4.1v-2.4h3.1v-1.7h-3.1v-2.3h4.1v-1.8h-6.4zm-2.5 0h-2.3v4.2h-4.1v-4.2h-2.3v10h2.3v-4.2h4.1v4.2h2.3v-10zm-11.9 7.5l-.2.1c-.1.1-.3.2-.4.3-.1.1-.3.1-.4.2-.1 0-.3.1-.5.1h-.6c-.4 0-.7-.1-1-.2-.3-.1-.6-.3-.8-.6-.2-.3-.4-.6-.6-1-.1-.4-.2-.9-.2-1.4 0-.5.1-.9.2-1.3s.3-.7.6-1 .5-.5.9-.6c.3-.1.7-.2 1.2-.2.2 0 .5 0 .6.1.2 0 .3.1.5.1.1.1.3.1.4.2l.3.2.2.1.2.1c.1 0 .2 0 .3-.1l.2-.2.8-1c-.2-.2-.4-.4-.6-.5-.2-.2-.5-.3-.8-.4l-.9-.3c-.3-.1-.7-.1-1.1-.1-.8 0-1.5.1-2.1.4-.6.3-1.2.6-1.6 1.1-.5.5-.8 1-1.1 1.6-.3.6-.4 1.3-.4 2.1 0 .7.1 1.4.3 2 .2.6.5 1.2 1 1.6s.9.8 1.5 1.1 1.3.4 2 .4c.8 0 1.5-.1 2.1-.4.6-.3 1.1-.7 1.5-1.2l-.9-1-.2-.1h-.2l-.2-.2m-8.5-6.5c-.2-.2-.4-.3-.6-.4-.2-.1-.5-.2-.7-.3s-.5-.2-.8-.2c-.3 0-.6-.1-.9-.1-.5 0-1 .1-1.5.3s-.8.4-1.1.7c-.3.3-.5.6-.7 1-.1.4-.2.7-.2 1.1 0 .5.1.9.2 1.2s.3.6.5.8c.2.2.4.4.7.5.3.1.5.2.8.3.3.1.6.2.8.2.3.1.5.2.7.3.2.1.4.2.5.4.1.1.2.3.2.6 0 .4-.1.7-.3.9-.2.2-.6.3-1 .3-.3 0-.6 0-.8-.1l-.6-.3-.5-.3c-.1-.1-.3-.1-.4-.1-.1 0-.2 0-.3.1-.1.1-.2.1-.2.2l-.7 1.1c.2.2.4.4.7.5.3.2.5.3.9.4l.9.3c.3.1.6.1.9.1.6 0 1.1-.1 1.5-.3.4-.2.8-.4 1.1-.7.3-.3.5-.6.7-1.1.2-.4.2-.8.2-1.3 0-.4-.1-.8-.2-1.1-.1-.3-.3-.5-.5-.8-.2-.2-.4-.4-.7-.5s-.5-.2-.8-.3c-.3-.1-.6-.2-.8-.3-.3-.1-.5-.2-.7-.3-.2-.1-.4-.2-.5-.3s-.2-.3-.2-.5c0-.3.1-.6.3-.8.2-.2.5-.3 1-.3.3 0 .5 0 .7.1.2.1.4.1.5.2l.4.2s.2.1.3.1c.1 0 .2 0 .3-.1l.2-.2.7-1.2zm-8.8-1h-2.3v10h2.3v-10zm-6.9 6.4c-.1.4-.3.7-.6 1-.2.3-.5.5-.9.6-.3.1-.7.2-1.2.2h-1.6v-6.4h1.6c.4 0 .8.1 1.2.2.3.1.6.4.9.6.2.3.4.6.6 1 .1.4.2.8.2 1.3 0 .6-.1 1.1-.2 1.5m2.2-3.4c-.3-.6-.6-1.1-1.1-1.6-.5-.4-1-.8-1.6-1-.6-.3-1.3-.4-2.1-.4h-3.9v10h3.9c.8 0 1.5-.1 2.1-.4.6-.2 1.2-.6 1.6-1 .5-.4.8-1 1.1-1.6.3-.6.4-1.3.4-2s-.2-1.4-.4-2m-15.6.5c.1-.2.1-.4.2-.6.1-.2.2-.5.2-.8.1.3.2.5.2.8l.2.6.9 2.7h-2.7c.1 0 1-2.7 1-2.7zm1.7-3.5h-2.4l-3.9 10h1.8c.2 0 .4-.1.5-.2l.3-.3.6-1.7h3.8l.6 1.7c.1.1.1.3.3.4.1.1.3.1.5.1h1.8c-.1 0-3.9-10-3.9-10zm-12.3 1.8h1.4c.3 0 .5 0 .7.1.2 0 .3.1.5.2.1.1.2.2.3.4.1.2.1.4.1.6 0 .2 0 .4-.1.6-.1.2-.2.3-.3.4-.1.1-.3.2-.5.2s-.4.1-.7.1h-1.2l-.2-2.6zm1.6 4c.3 0 .5 0 .7.1.2.1.3.1.5.2.1.1.2.2.2.4 0 .1.1.3.1.5s0 .3-.1.5c0 .2-.1.3-.2.4-.1.1-.3.2-.5.3-.2.1-.4.1-.8.1h-1.6v-2.5h1.7zm.1 4.2c.6 0 1.1-.1 1.6-.2.5-.2.9-.4 1.2-.6.3-.3.6-.6.7-1 .2-.4.2-.8.2-1.2 0-.6-.2-1-.5-1.4-.3-.4-.8-.6-1.5-.8.3-.1.6-.2.8-.4.2-.1.4-.3.5-.5l.3-.6c.1-.2.1-.4.1-.6 0-.4-.1-.8-.2-1.1-.1-.3-.4-.6-.7-.9-.3-.2-.7-.4-1.2-.5-.5-.1-1.1-.2-1.8-.2h-3.7v10h4.2z"/></svg>